<?xml version="1.0" encoding="utf-8"?>
<!DOCTYPE svg PUBLIC "-//W3C//DTD SVG 20010904//EN" "http://www.w3.org/TR/2001/REC-SVG-20010904/DTD/svg10.dtd">
<svg version="1.0" width="384pt" height="384pt" viewBox="0 0 384 384" preserveAspectRatio="xMidYMid meet" xmlns="http://www.w3.org/2000/svg">
  <g transform="translate(0,384)scale(.075,.075)">
    <path id="path1" d="M 2149 -5080 c -687 87 -1078 853 -752 1471 2 3 -29 -4 -69 -15 -237 -65 -575 -8 -796 136 -844 551 -451 1852 560 1853 l 156 0 -25 40 c -532 855 358 1880 1273 1465 294 -133 574 -503 574 -758 0 -22 10 -14 77 57 520 560 1420 393 1695 -315 181 -467 -30 -1024 -473 -1250 l -31 -16 78 -32 c 805 -324 830 -1477 41 -1846 -361 -169 -859 -91 -1117 175 -46 48 -46 48 -53 -63 -33 -551 -568 -975 -1138 -902 z " />
    <path id="path2" d="M 2540 -4640 c 429 121 675 567 543 983 -12 38 -19 47 -32 42 -360 -143 -856 -36 -1159 250 -83 77 -82 77 -157 -14 -486 -590 73 -1467 805 -1261 z m 1545 614 c 446 145 673 632 494 1061 -113 272 -402 475 -675 475 l -81 0 -7 -103 c -25 -397 -246 -748 -592 -942 -46 -26 -84 -49 -84 -51 0 -3 15 -35 34 -72 102 -203 306 -345 566 -396 71 -13 266 2 345 28 z m -2654 630 c 86 19 202 67 280 117 l 61 40 -24 32 c -245 324 -287 812 -102 1179 19 37 34 70 34 73 0 14 -171 86 -235 100 -551 116 -1051 -384 -930 -931 91 -414 513 -695 916 -610 z m 1397 122 c 581 117 803 855 385 1280 -410 416 -1127 222 -1274 -345 -139 -536 344 -1045 889 -935 z m 1117 881 c 595 143 786 905 332 1330 -402 376 -1065 228 -1256 -280 -29 -80 -28 -83 31 -102 369 -120 684 -489 748 -876 7 -41 14 -80 16 -86 4 -14 26 -11 129 14 z m -2138 615 c 221 268 622 429 975 390 57 -6 112 -14 121 -17 23 -9 32 45 32 195 -3 755 -1002 1039 -1434 407 -226 -331 -155 -796 159 -1044 l 55 -43 18 22 c 10 13 43 53 74 90 z " fill="#FFF" />
  </g>
  <circle cx="201" cy="195" r="60" fill="#FFDD00" />
</svg>
